name D:\school\WTK\thesis\model\3dpredictsim\Results\batch_windlass\Pog_s1_tmt_bCst_d05_k500_WL30_ig24_pas.mot
datacolumns 128
datarows 4
range 1.61831810 1.65068446
endheader
time	pelvis_tilt	pelvis_list	pelvis_rotation	pelvis_tx	pelvis_ty	pelvis_tz	hip_flexion_l	hip_adduction_l	hip_rotation_l	hip_flexion_r	hip_adduction_r	hip_rotation_r	knee_angle_l	knee_angle_r	ankle_angle_l	ankle_angle_r	subtalar_angle_l	subtalar_angle_r	tmt_angle_l	tmt_angle_r	mtp_angle_l	mtp_angle_r	lumbar_extension	lumbar_bending	lumbar_rotation	arm_flex_l	arm_add_l	arm_rot_l	arm_flex_r	arm_add_r	arm_rot_r	elbow_flex_l	elbow_flex_r	pro_sup_l	pro_sup_r	glut_med1_l/activation	glut_med2_l/activation	glut_med3_l/activation	glut_min1_l/activation	glut_min2_l/activation	glut_min3_l/activation	semimem_l/activation	semiten_l/activation	bifemlh_l/activation	bifemsh_l/activation	sar_l/activation	add_long_l/activation	add_brev_l/activation	add_mag1_l/activation	add_mag2_l/activation	add_mag3_l/activation	tfl_l/activation	pect_l/activation	grac_l/activation	glut_max1_l/activation	glut_max2_l/activation	glut_max3_l/activation	iliacus_l/activation	psoas_l/activation	quad_fem_l/activation	gem_l/activation	peri_l/activation	rect_fem_l/activation	vas_med_l/activation	vas_int_l/activation	vas_lat_l/activation	med_gas_l/activation	lat_gas_l/activation	soleus_l/activation	tib_post_l/activation	flex_dig_l/activation	flex_hal_l/activation	tib_ant_l/activation	per_brev_l/activation	per_long_l/activation	per_tert_l/activation	ext_dig_l/activation	ext_hal_l/activation	ercspn_l/activation	intobl_l/activation	extobl_l/activation	glut_med1_r/activation	glut_med2_r/activation	glut_med3_r/activation	glut_min1_r/activation	glut_min2_r/activation	glut_min3_r/activation	semimem_r/activation	semiten_r/activation	bifemlh_r/activation	bifemsh_r/activation	sar_r/activation	add_long_r/activation	add_brev_r/activation	add_mag1_r/activation	add_mag2_r/activation	add_mag3_r/activation	tfl_r/activation	pect_r/activation	grac_r/activation	glut_max1_r/activation	glut_max2_r/activation	glut_max3_r/activation	iliacus_r/activation	psoas_r/activation	quad_fem_r/activation	gem_r/activation	peri_r/activation	rect_fem_r/activation	vas_med_r/activation	vas_int_r/activation	vas_lat_r/activation	med_gas_r/activation	lat_gas_r/activation	soleus_r/activation	tib_post_r/activation	flex_dig_r/activation	flex_hal_r/activation	tib_ant_r/activation	per_brev_r/activation	per_long_r/activation	per_tert_r/activation	ext_dig_r/activation	ext_hal_r/activation	ercspn_r/activation	intobl_r/activation	extobl_r/activation	
          1.61831810	         -2.91967780	          1.50934514	         -5.73196317	          2.02289762	          0.85800794	          0.00214613	         31.42802030	          2.04556107	         -4.40028571	        -17.98749561	         -1.34592279	          7.32971612	        -18.20085966	         -9.83921022	          1.35062960	         -0.38165678	          1.07399095	         12.08182953	         -0.21310486	         -7.76101435	          0.79175834	         29.05093996	         -1.05044260	          0.14630794	          1.86871046	         -9.65043928	        -13.55137684	          6.10113293	          4.60266767	        -13.46937528	         15.07688978	         18.06720181	         35.90551022	         86.51662706	         86.51662706	          0.05899043	          0.05000043	          0.08015616	          0.05000031	          0.05000038	          0.05000089	          0.05899068	          0.05899061	          0.23352679	          0.05000017	          0.05000020	          0.09686862	          0.18576460	          0.18707993	          0.18379114	          0.13716924	          0.05000046	          0.05602672	          0.05899116	          0.06309291	          0.11304958	          0.14722962	          0.05605522	          0.05610836	          0.23654694	          0.05320480	          0.05589764	          0.05000015	          0.13879679	          0.13952012	          0.11806372	          0.05899065	          0.05899065	          0.05899064	          0.05000003	          0.05000062	          0.05000300	          0.51273156	          0.27947551	          0.16514761	          0.31584359	          0.57032146	          0.05000006	          0.05000003	          0.09968979	          0.10559149	          0.21668845	          0.07850963	          0.05000002	          0.24773767	          0.15985559	          0.08033428	          0.05000088	          0.05000012	          0.05000008	          0.06250877	          0.07362893	          0.18112375	          0.07676245	          0.05000117	          0.05000135	          0.05000047	          0.26076652	          0.08151804	          0.05000032	          0.05000098	          0.05000071	          0.05000061	          0.33839860	          0.57889327	          0.05000006	          0.05000014	          0.05000004	          0.28152463	          0.12339473	          0.05172740	          0.11684933	          0.26502070	          0.34148161	          0.21251677	          0.19866989	          0.17297662	          0.24501472	          0.05000000	          0.11137138	          0.16548095	          0.05000008	          0.05000001	          0.05000006	          0.05000000	          0.05000006	          0.05000008	
          1.62910689	         -2.90696729	          1.58014513	         -5.97369732	          2.03962864	          0.85693456	          0.00196421	         30.80358317	          2.41745048	         -4.19438275	        -17.80944159	         -1.62867586	          7.16204447	        -18.16765512	        -11.74234169	          0.90356230	         -1.39695084	          0.47912283	         13.00461141	         -0.23984521	         -8.47276143	          0.92172653	         29.93693213	         -0.81618067	         -0.08233684	          1.93730735	        -10.70335680	        -13.54556504	          5.93665098	          4.32641596	        -13.49631386	         15.38914610	         17.94756782	         36.86885039	         86.51662706	         86.51662706	          0.05000003	          0.05000011	          0.10327977	          0.05000006	          0.05000010	          0.05000014	          0.05000006	          0.05000007	          0.19793577	          0.05000009	          0.05000153	          0.08210518	          0.15745266	          0.35009467	          0.26977731	          0.13689197	          0.05000011	          0.05000081	          0.05000069	          0.05899060	          0.10840371	          0.15668278	          0.05000005	          0.05000027	          0.50580055	          0.09687695	          0.07477390	          0.06959781	          0.22589380	          0.21911334	          0.18970326	          0.05000000	          0.05000001	          0.05000000	          0.05000003	          0.05000371	          0.05000015	          0.61591634	          0.23688123	          0.13997784	          0.48456934	          0.59697070	          0.07955546	          0.05000000	          0.08449626	          0.08949849	          0.18366340	          0.06654415	          0.05000038	          0.20998050	          0.13549233	          0.06809073	          0.05000187	          0.05000016	          0.05000030	          0.05298196	          0.06240740	          0.23603536	          0.21347371	          0.16490791	          0.05000691	          0.08014513	          0.22102382	          0.08211285	          0.05000174	          0.05000099	          0.05000061	          0.05000053	          0.28682392	          0.52133414	          0.05000026	          0.05899073	          0.05899068	          0.23861801	          0.10458878	          0.18770387	          0.12538978	          0.22462939	          0.28943704	          0.18012749	          0.16839101	          0.14661365	          0.20767253	          0.06716045	          0.09439751	          0.14026034	          0.05000011	          0.09864994	          0.05000034	          0.05000007	          0.06959795	          0.06181928	
          1.63989567	         -2.89053704	          1.66414699	         -6.18988747	          2.05656274	          0.85570844	          0.00180332	         30.02792652	          2.74526554	         -3.90449338	        -17.54752656	         -1.90700960	          6.98196843	        -18.62734636	        -13.80691887	          0.61651503	         -2.47859210	         -0.17333934	         13.86001015	         -0.45080257	         -8.99423084	          1.03330212	         30.26568020	         -0.56740186	         -0.33177207	          1.99347953	        -11.74381389	        -13.55272888	          5.86120915	          3.98573675	        -13.52790418	         15.64342849	         17.81030082	         37.82421322	         86.51662706	         86.51662706	          0.29834164	          0.30864938	          0.41265572	          0.12048272	          0.05000032	          0.37272143	          0.08610410	          0.10236177	          0.17349131	          0.05000007	          0.05000020	          0.06959864	          0.22216758	          0.29673747	          0.22866650	          0.17495279	          0.05000011	          0.06959587	          0.12863674	          0.05000006	          0.09188228	          0.17263545	          0.05899058	          0.05000037	          0.42871245	          0.08211218	          0.25661926	          0.05899055	          0.20593384	          0.21973025	          0.18864206	          0.05899065	          0.05899066	          0.05899065	          0.05000003	          0.05000012	          0.05000101	          0.54258172	          0.20077863	          0.11864409	          0.41071711	          0.57547035	          0.06743057	          0.05000003	          0.08211315	          0.07585820	          0.22450267	          0.05640230	          0.05000004	          0.17797786	          0.11484223	          0.05771319	          0.05000126	          0.05000046	          0.05000048	          0.05000004	          0.05289611	          0.20229409	          0.31676850	          0.13977485	          0.05899330	          0.11411259	          0.25204436	          0.06959879	          0.05001757	          0.05000369	          0.05000586	          0.05899011	          0.24310965	          0.49333272	          0.05000118	          0.05000044	          0.05000005	          0.20225069	          0.08864866	          0.15909631	          0.10627940	          0.19039405	          0.24532448	          0.15267459	          0.14272687	          0.12426860	          0.17602159	          0.14074992	          0.16711461	          0.16957937	          0.05000123	          0.19738857	          0.11569359	          0.07162649	          0.05899066	          0.05340993	
          1.65068446	         -2.87312231	          1.75742061	         -6.37507526	          2.07345023	          0.85441484	          0.00163867	         29.13655822	          3.05362167	         -3.59397826	        -17.15572917	         -2.17322693	          6.79957621	        -19.11202404	        -16.09498749	          0.62115766	         -3.56105845	         -0.85794807	         14.63251458	         -0.67494193	         -9.14870445	          1.16803961	         29.64924921	         -0.32700591	         -0.59495223	          2.03814760	        -12.71241900	        -13.56917392	          5.89556584	          3.62463875	        -13.56337062	         15.85927447	         17.61826316	         38.73799964	         86.51662706	         86.51662706	          0.39599447	          0.46580273	          0.53482840	          0.26807602	          0.39627789	          0.39415586	          0.07298118	          0.10444561	          0.14704984	          0.05902735	          0.05000027	          0.05899125	          0.18830745	          0.25151233	          0.19381625	          0.17838177	          0.05000013	          0.05898902	          0.10903160	          0.28808154	          0.21884106	          0.18287716	          0.05000002	          0.05000002	          0.36337321	          0.06959793	          0.21750876	          0.05000001	          0.28184007	          0.30022254	          0.25689418	          0.05000000	          0.05000002	          0.05000000	          0.08310978	          0.05000808	          0.05000023	          0.68962453	          0.17017834	          0.10056177	          0.44821832	          0.59111834	          0.34693687	          0.06408984	          0.06959846	          0.06429679	          0.19028667	          0.05000003	          0.05000001	          0.15085352	          0.09733940	          0.05000009	          0.05000931	          0.05000015	          0.05000014	          0.05000015	          0.05409517	          0.20479648	          0.26849046	          0.11847211	          0.05000240	          0.09672111	          0.28078884	          0.05899152	          0.05000016	          0.05000033	          0.05000021	          0.05000015	          0.20605780	          0.46162560	          0.05000001	          0.05000011	          0.05000008	          0.17142610	          0.07513792	          0.13484878	          0.09008159	          0.16137645	          0.20793504	          0.12940574	          0.12097440	          0.10532918	          0.14919464	          0.16190962	          0.14164505	          0.14373414	          0.11794943	          0.21202351	          0.09806117	          0.10523767	          0.05000001	          0.05000001	
